<?xml version="1.0" standalone="no"?>
<!DOCTYPE svg PUBLIC "-//W3C//DTD SVG 20010904//EN"
 "http://www.w3.org/TR/2001/REC-SVG-20010904/DTD/svg10.dtd">
<svg version="1.0" xmlns="http://www.w3.org/2000/svg"
 width="980.000000pt" height="980.000000pt" viewBox="0 0 980.000000 980.000000"
 preserveAspectRatio="xMidYMid meet">

<g transform="translate(0.000000,980.000000) scale(0.100000,-0.100000)"
fill="#000000" stroke="none">
<path d="M5329 7373 c-13 -16 -12 -17 4 -4 9 7 17 15 17 17 0 8 -8 3 -21 -13z"/>
<path d="M4533 6775 c-62 -12 -158 -37 -215 -55 -137 -42 -401 -170 -385 -186
9 -9 48 7 42 17 -9 13 9 11 22 -2 9 -9 20 -8 45 4 18 9 34 14 36 12 7 -7 -10
-26 -32 -35 -16 -7 -17 -9 -4 -9 9 -1 23 6 32 14 12 13 58 15 290 15 253 0
275 1 279 18 4 16 5 16 6 0 1 -19 21 -26 21 -7 0 20 20 -3 21 -24 2 -56 19 46
25 151 l7 112 -39 -1 c-21 0 -89 -11 -151 -24z m-393 -145 c-8 -5 -19 -10 -25
-10 -5 0 -3 5 5 10 8 5 20 10 25 10 6 0 3 -5 -5 -10z m87 -6 c-3 -3 -12 -4
-19 -1 -8 3 -5 6 6 6 11 1 17 -2 13 -5z m-127 -8 c0 -2 -7 -7 -16 -10 -8 -3
-12 -2 -9 4 6 10 25 14 25 6z m37 -12 c-3 -3 -12 -4 -19 -1 -8 3 -5 6 6 6 11
1 17 -2 13 -5z m-91 -32 c-8 -14 -45 -22 -52 -11 -3 5 4 9 15 9 11 0 23 5 26
11 4 6 9 8 12 5 3 -2 2 -9 -1 -14z"/>
<path d="M3845 6490 c-4 -6 -4 -14 -1 -17 3 -4 6 -1 6 5 0 7 7 12 16 12 8 0
12 -4 9 -10 -3 -5 -1 -10 5 -10 17 0 6 24 -12 28 -9 2 -19 -2 -23 -8z"/>
<path d="M4538 6493 c7 -3 16 -2 19 1 4 3 -2 6 -13 5 -11 0 -14 -3 -6 -6z"/>
<path d="M4628 6483 c6 -2 18 -2 25 0 6 3 1 5 -13 5 -14 0 -19 -2 -12 -5z"/>
<path d="M3786 6451 c-5 -8 40 -9 47 -1 3 3 -6 6 -19 6 -13 1 -26 -1 -28 -5z"/>
<path d="M4212 5123 c92 -2 245 -2 340 0 95 1 20 3 -167 3 -187 0 -265 -2
-173 -3z"/>
<path d="M4728 3543 c7 -3 16 -2 19 1 4 3 -2 6 -13 5 -11 0 -14 -3 -6 -6z"/>
<path d="M3640 3060 c8 -5 20 -10 25 -10 6 0 3 5 -5 10 -8 5 -19 10 -25 10 -5
0 -3 -5 5 -10z"/>
<path d="M6140 3060 c-9 -6 -10 -10 -3 -10 6 0 15 5 18 10 8 12 4 12 -15 0z"/>
</g>
</svg>
